<svg data-v-423bf9ae="" xmlns="http://www.w3.org/2000/svg" viewBox="0 0 199.0341578327444 60" class="font"><!----><!----><!----><g data-v-423bf9ae="" id="df32e491-21e1-4093-bc6f-f0372de3c582" fill="black" transform="matrix(6.0306243896484375,0,0,6.0306243896484375,-5.7008233070373535,-20.25912857055664)"><path d="M1.05 11.90L1.05 11.90C1.86 12.54 3.16 13.30 4.66 13.31L4.66 13.31C5.64 13.31 6.52 13.02 7.18 12.54L7.18 12.54C7.84 12.07 8.29 11.37 8.29 10.58L8.29 10.58C8.29 9.80 7.85 9.16 7.21 8.74L7.21 8.74C6.57 8.30 5.70 8.02 4.72 7.84L4.69 7.84L4.69 7.84C3.81 7.67 3.08 7.43 2.59 7.10L2.59 7.10C2.10 6.76 1.88 6.40 1.86 5.91L1.86 5.91C1.86 5.40 2.14 4.93 2.63 4.56L2.63 4.56C3.12 4.21 3.84 3.98 4.63 3.98L4.63 3.98C5.71 3.98 6.55 4.51 7.32 5.01L7.32 5.01C7.46 5.11 7.66 5.07 7.74 4.93L7.74 4.93C7.84 4.77 7.80 4.59 7.66 4.49L7.66 4.49C6.89 3.99 5.92 3.36 4.63 3.36L4.63 3.36C3.71 3.36 2.88 3.63 2.27 4.07L2.27 4.07C1.65 4.52 1.25 5.17 1.25 5.91L1.25 5.91C1.25 6.64 1.65 7.22 2.25 7.62L2.25 7.62C2.86 8.02 3.65 8.27 4.56 8.44L4.59 8.44L4.59 8.44C5.54 8.62 6.33 8.89 6.86 9.24L6.86 9.24C7.39 9.60 7.66 10.02 7.66 10.58L7.66 10.58C7.66 11.13 7.36 11.65 6.82 12.04L6.82 12.04C6.29 12.43 5.52 12.68 4.66 12.68L4.66 12.68C3.39 12.70 2.17 12.01 1.44 11.42L1.44 11.42C1.32 11.31 1.12 11.33 1.01 11.47L1.01 11.47C0.91 11.59 0.92 11.79 1.05 11.90ZM10.50 10.50L10.50 10.50C10.50 12.04 11.73 13.30 13.27 13.30L13.27 13.30C14.84 13.30 16.09 12.04 16.09 10.50L16.09 6.76L16.09 6.76C16.09 6.57 15.93 6.43 15.74 6.43L15.74 6.43C15.57 6.43 15.40 6.57 15.40 6.76L15.40 6.76L15.40 10.50L15.40 10.50C15.40 11.68 14.45 12.61 13.27 12.63L13.27 12.63C12.11 12.61 11.17 11.68 11.17 10.50L11.17 6.76L11.17 6.76C11.17 6.57 11.02 6.43 10.84 6.43L10.84 6.43C10.65 6.43 10.50 6.57 10.50 6.76L10.50 10.50ZM24.26 12.96C24.26 13.15 24.42 13.30 24.60 13.30C24.79 13.30 24.95 13.15 24.95 12.96L24.95 9.14C24.95 7.56 23.66 6.44 22.08 6.44C21.21 6.44 20.43 6.83 19.91 7.45L19.91 3.84C19.91 3.65 19.75 3.50 19.56 3.50C19.38 3.50 19.22 3.65 19.22 3.84L19.22 9.03L19.22 9.14L19.22 12.96C19.22 13.01 19.22 13.03 19.24 13.08C19.25 13.12 19.26 13.15 19.29 13.19C19.36 13.26 19.46 13.30 19.56 13.30L19.60 13.30L19.63 13.30C19.64 13.30 19.66 13.29 19.66 13.29C19.75 13.26 19.82 13.20 19.87 13.12C19.88 13.10 19.88 13.09 19.89 13.06C19.89 13.05 19.91 13.03 19.91 13.01L19.91 12.96L19.91 9.14C19.91 7.94 20.89 7.13 22.08 7.13C23.28 7.13 24.26 7.94 24.26 9.14L24.26 12.96ZM30.65 13.30C31.81 13.30 32.83 12.68 33.42 11.75C33.52 11.58 33.46 11.38 33.31 11.27C33.17 11.19 32.96 11.21 32.86 11.38C32.40 12.15 31.56 12.63 30.65 12.63C29.23 12.63 28.06 11.49 27.99 10.00L33.61 10.00C33.80 10.00 33.95 9.87 33.95 9.69L33.95 9.65L33.95 9.63C33.81 7.84 32.41 6.44 30.65 6.44C28.80 6.44 27.31 7.98 27.31 9.88C27.31 11.76 28.80 13.30 30.65 13.30ZM30.65 7.11C31.91 7.11 33.00 8.05 33.22 9.34L28.03 9.34C28.28 8.04 29.36 7.11 30.65 7.11Z"></path></g><!----><!----></svg>